<?xml version="1.0" encoding="UTF-8"?>
<svg id="Camada_1" data-name="Camada 1" xmlns="http://www.w3.org/2000/svg" version="1.1" viewBox="0 0 1080 1080">
  <defs>
    <style>
      .cls-1 {
        fill: #721f02;
      }

      .cls-1, .cls-2 {
        stroke-width: 0px;
      }

      .cls-2 {
        fill: #ecd8a3;
      }
    </style>
  </defs>
  <rect class="cls-1" width="1080" height="1080"/>
  <g>
    <path class="cls-2" d="M540,97.3c144.19,0,161.26.55,218.21,3.15,52.65,2.4,81.24,11.2,100.27,18.59,23.45,8.66,44.67,22.46,62.09,40.39,17.94,17.42,31.74,38.63,40.39,62.09,7.4,19.03,16.19,47.62,18.59,100.27,2.6,56.94,3.15,74.02,3.15,218.21s-.55,161.26-3.15,218.21c-2.4,52.65-11.2,81.24-18.59,100.27-18.17,47.09-55.39,84.32-102.48,102.48-19.03,7.39-47.62,16.19-100.27,18.59-56.93,2.6-74.01,3.15-218.21,3.15s-161.27-.55-218.21-3.15c-52.65-2.4-81.24-11.2-100.27-18.59-23.45-8.66-44.67-22.46-62.09-40.39-17.93-17.42-31.74-38.64-40.39-62.09-7.39-19.03-16.19-47.62-18.59-100.27-2.6-56.94-3.15-74.02-3.15-218.21s.55-161.26,3.15-218.21c2.4-52.65,11.2-81.24,18.59-100.27,8.66-23.46,22.46-44.67,40.4-62.09,17.42-17.93,38.63-31.74,62.09-40.39,19.03-7.39,47.62-16.19,100.27-18.59,56.94-2.6,74.02-3.15,218.21-3.15M540,0c-146.66,0-165.05.62-222.64,3.25-57.48,2.62-96.73,11.75-131.08,25.1-36.03,13.56-68.67,34.81-95.64,62.28-27.48,26.97-48.74,59.61-62.3,95.64-13.34,34.35-22.47,73.6-25.08,131.08-2.64,57.59-3.26,75.98-3.26,222.64s.62,165.05,3.26,222.64c2.62,57.48,11.75,96.73,25.1,131.08,13.56,36.03,34.81,68.67,62.28,95.64,26.97,27.47,59.61,48.73,95.64,62.28,34.35,13.35,73.6,22.48,131.08,25.1,57.6,2.63,75.99,3.25,222.64,3.25s165.05-.62,222.64-3.25c57.48-2.62,96.73-11.75,131.08-25.1,72.53-28.05,129.87-85.39,157.93-157.93,13.35-34.35,22.48-73.6,25.1-131.08,2.63-57.6,3.25-75.99,3.25-222.64s-.62-165.05-3.25-222.64c-2.62-57.48-11.75-96.73-25.1-131.08-13.56-36.03-34.81-68.67-62.28-95.64-26.97-27.48-59.61-48.74-95.65-62.3-34.35-13.34-73.6-22.47-131.08-25.08-57.59-2.64-75.98-3.26-222.64-3.26h0Z"/>
    <path class="cls-2" d="M540,262.7c-153.15,0-277.3,124.15-277.3,277.3s124.15,277.3,277.3,277.3,277.3-124.15,277.3-277.3h0c0-153.15-124.15-277.3-277.3-277.3ZM540,720c-99.41,0-180-80.59-180-180,0-99.41,80.59-180,180-180,99.41,0,180,80.59,180,180,0,99.41-80.59,180-180,180Z"/>
    <path class="cls-2" d="M828.25,186.95c35.79,0,64.8,29.01,64.8,64.8s-29.01,64.8-64.8,64.8-64.8-29.01-64.8-64.8,29.01-64.8,64.8-64.8Z"/>
  </g>
</svg>