<?xml version="1.0" encoding="UTF-8"?>
<svg id="Camada_1" data-name="Camada 1" xmlns="http://www.w3.org/2000/svg" version="1.1" viewBox="0 0 1080 1080">
  <defs>
    <style>
      .cls-1 {
        fill: #721f02;
      }

      .cls-1, .cls-2, .cls-3, .cls-4 {
        stroke-width: 0px;
      }

      .cls-2 {
        fill: #ecd8a3;
      }

      .cls-3 {
        fill: #63240b;
      }

      .cls-4 {
        fill: none;
      }
    </style>
  </defs>
  <rect class="cls-1" width="1080" height="1080"/>
  <g>
    <path class="cls-2" d="M540,1080c-94.52,0-187.23-25-269.33-72.48l-210.39,72.48,43.24-222.78C35.73,764.32,0,655.03,0,540.01,0,242.25,242.24,0,540,0s540,242.24,540,540.01c0,297.75-242.21,539.99-540,539.99Z"/>
    <g>
      <g>
        <path class="cls-4" d="M540,213.46c-180.33,0-326.53,146.21-326.53,326.54,0,75.8,26.05,145.35,69.37,200.76l-21.82,112.41,106.05-36.56c50.19,31.47,109.34,49.93,172.93,49.93,180.34,0,326.57-146.21,326.57-326.55,0-180.32-146.22-326.53-326.56-326.53Z"/>
        <path class="cls-3" d="M540,892.79c-61.74,0-122.31-16.34-175.94-47.37l-137.44,47.37,28.23-145.56c-44.27-60.7-67.62-132.07-67.62-207.24,0-194.53,158.25-352.78,352.77-352.78s352.79,158.25,352.79,352.78-158.26,352.79-352.79,352.79ZM370.4,787.73l10.63,6.66c47.91,30.03,102.89,45.91,158.98,45.91,165.6,0,300.31-134.71,300.31-300.3s-134.7-300.29-300.31-300.29-300.28,134.71-300.28,300.29c0,67.37,22.07,131.21,63.78,184.59l7.37,9.43-15.44,79.53,74.95-25.82Z"/>
      </g>
      <path class="cls-3" d="M361.91,404.46s20.71-36.18,37.58-38.24c16.87-2.08,38.6-2.08,44.45,8.95,5.87,11.02,32.05,75.13,32.05,75.13,0,0,4.49,11.02-2.4,21.71-6.89,10.68-22.4,26.19-22.4,26.19,0,0-8.62,11.02,0,22.75,8.62,11.7,21.98,33.25,49.63,60.87,27.6,27.64,80.62,47.34,80.62,47.34,0,0,7.59,1.02,12.42-3.8,4.81-4.82,31.02-37.56,31.02-37.56,0,0,8.41-10.84,22.38-4.48,13.95,6.38,74.43,36.53,74.43,36.53,0,0,7.08,2.58,7.08,13.26s-4.32,36.82-13.16,45.66c-8.84,8.85-34.68,36.09-73.52,36.09s-131.3-31.6-180.58-80.88c-49.27-49.29-93.03-99.27-103.36-144.74-10.35-45.51-8.97-66.06,3.76-84.8Z"/>
    </g>
  </g>
</svg>