<?xml version="1.0" encoding="UTF-8"?>
<svg id="Camada_1" data-name="Camada 1" xmlns="http://www.w3.org/2000/svg" version="1.1" viewBox="0 0 1080 1080">
  <defs>
    <style>
      .cls-1 {
        fill: #ffeacc;
      }

      .cls-1, .cls-2, .cls-3 {
        stroke-width: 0px;
      }

      .cls-2 {
        fill: none;
      }

      .cls-3 {
        fill: #3f324d;
      }
    </style>
  </defs>
  <path class="cls-1" d="M540,1080c-94.5,0-187.2-25-269.3-72.5l-210.4,72.5,43.2-222.8C35.7,764.3,0,655,0,540,0,242.2,242.2,0,540,0s540,242.2,540,540-242.2,540-540,540Z"/>
  <g>
    <g>
      <path class="cls-2" d="M540,213.5c-180.3,0-326.5,146.2-326.5,326.5s26.1,145.3,69.4,200.8l-21.8,112.4,106.1-36.6c50.2,31.5,109.3,49.9,172.9,49.9,180.3,0,326.6-146.2,326.6-326.5s-146.2-326.5-326.6-326.5h0Z"/>
      <path class="cls-3" d="M540,892.8c-61.7,0-122.3-16.3-175.9-47.4l-137.4,47.4,28.2-145.6c-44.3-60.7-67.6-132.1-67.6-207.2,0-194.5,158.2-352.8,352.8-352.8s352.8,158.2,352.8,352.8-158.3,352.8-352.8,352.8h0ZM370.4,787.7l10.6,6.7c47.9,30,102.9,45.9,159,45.9,165.6,0,300.3-134.7,300.3-300.3s-134.7-300.3-300.3-300.3-300.3,134.7-300.3,300.3,22.1,131.2,63.8,184.6l7.4,9.4-15.4,79.5,75-25.8h-.1Z"/>
    </g>
    <path class="cls-3" d="M361.9,404.5s20.7-36.2,37.6-38.2c16.9-2.1,38.6-2.1,44.5,9,5.9,11,32,75.1,32,75.1,0,0,4.5,11-2.4,21.7s-22.4,26.2-22.4,26.2c0,0-8.6,11,0,22.8,8.6,11.7,22,33.2,49.6,60.9,27.6,27.6,80.6,47.3,80.6,47.3,0,0,7.6,1,12.4-3.8,4.8-4.8,31-37.6,31-37.6,0,0,8.4-10.8,22.4-4.5,14,6.4,74.4,36.5,74.4,36.5,0,0,7.1,2.6,7.1,13.3s-4.3,36.8-13.2,45.7-34.7,36.1-73.5,36.1-131.3-31.6-180.6-80.9c-49.3-49.3-93-99.3-103.4-144.7-10.4-45.5-9-66.1,3.8-84.8h0Z"/>
  </g>
</svg>