<?xml version="1.0" encoding="UTF-8"?>
<svg id="Camada_1" data-name="Camada 1" xmlns="http://www.w3.org/2000/svg" version="1.1" viewBox="0 0 1080 1080">
  <defs>
    <style>
      .cls-1 {
        fill: #ffeacc;
        stroke-width: 0px;
      }
    </style>
  </defs>
  <path class="cls-1" d="M540,97.3c144.2,0,161.3.6,218.2,3.2,52.7,2.4,81.2,11.2,100.3,18.6,23.5,8.7,44.7,22.5,62.1,40.4,17.9,17.4,31.7,38.6,40.4,62.1,7.4,19,16.2,47.6,18.6,100.3,2.6,56.9,3.2,74,3.2,218.2s-.5,161.3-3.2,218.2c-2.4,52.7-11.2,81.2-18.6,100.3-18.2,47.1-55.4,84.3-102.5,102.5-19,7.4-47.6,16.2-100.3,18.6-56.9,2.6-74,3.2-218.2,3.2s-161.3-.5-218.2-3.2c-52.6-2.4-81.2-11.2-100.3-18.6-23.4-8.7-44.7-22.5-62.1-40.4-17.9-17.4-31.7-38.6-40.4-62.1-7.4-19-16.2-47.6-18.6-100.3-2.6-56.9-3.2-74-3.2-218.2s.6-161.3,3.2-218.2c2.4-52.6,11.2-81.2,18.6-100.3,8.7-23.5,22.5-44.7,40.4-62.1,17.4-17.9,38.6-31.7,62.1-40.4,19-7.4,47.6-16.2,100.3-18.6,56.9-2.6,74-3.2,218.2-3.2M540,0c-146.7,0-165,.6-222.6,3.2-57.5,2.6-96.7,11.8-131.1,25.1-36,13.6-68.7,34.8-95.6,62.3-27.5,27-48.7,59.6-62.3,95.6-13.3,34.4-22.5,73.6-25.1,131.1-2.7,57.6-3.3,76-3.3,222.7s.6,165,3.3,222.6c2.6,57.5,11.8,96.7,25.1,131.1,13.6,36,34.8,68.7,62.3,95.6,27,27.5,59.6,48.7,95.6,62.3,34.3,13.3,73.6,22.5,131.1,25.1,57.6,2.6,76,3.2,222.6,3.2s165-.6,222.6-3.2c57.5-2.6,96.7-11.8,131.1-25.1,72.5-28,129.9-85.4,157.9-157.9,13.3-34.3,22.5-73.6,25.1-131.1,2.6-57.6,3.2-76,3.2-222.6s-.6-165-3.2-222.6c-2.6-57.5-11.8-96.7-25.1-131.1-13.6-36-34.8-68.7-62.3-95.6-27-27.5-59.6-48.7-95.7-62.3-34.3-13.3-73.6-22.5-131.1-25.1-57.5-2.7-75.8-3.3-222.5-3.3h0Z"/>
  <path class="cls-1" d="M540,262.7c-153.1,0-277.3,124.1-277.3,277.3s124.1,277.3,277.3,277.3,277.3-124.2,277.3-277.3h0c0-153.1-124.2-277.3-277.3-277.3ZM540,720c-99.4,0-180-80.6-180-180s80.6-180,180-180,180,80.6,180,180-80.6,180-180,180Z"/>
  <path class="cls-1" d="M828.2,186.9c35.8,0,64.8,29,64.8,64.8s-29,64.8-64.8,64.8-64.8-29-64.8-64.8,29-64.8,64.8-64.8h0Z"/>
</svg>