<?xml version="1.0" encoding="UTF-8"?>
<svg id="Camada_1" data-name="Camada 1" xmlns="http://www.w3.org/2000/svg" version="1.1" viewBox="0 0 67 41">
  <defs>
    <style>
      .cls-1 {
        fill: #ffeacc;
        stroke-width: 0px;
      }
    </style>
  </defs>
  <path class="cls-1" d="M45,4.7c.8-.9,1.7-1.6,2.6-2.2,1.6-1,3.3-1.5,5-1.5v14.5c-1.3-4.4-4-8.2-7.6-10.7ZM66.6,40.9H15.3C6.9,40.9,0,34.1,0,25.7s6.2-14.6,14.2-15.2V.9c1.8,0,3.5.5,5.2,1.5.9.6,1.8,1.3,2.6,2.1,3.3-2.3,7.2-3.6,11.5-3.6,0,9.2-3.3,20-14.1,20h14c-.4-1.8-2-3.1-4-3.1h8.2c-2,0-3.6,1.4-4,3.2h13.1c2.6,0,5.2.5,7.6,1.5,2.4,1,4.6,2.5,6.5,4.3,1.9,1.9,3.3,4.1,4.3,6.5,1,2.4,1.5,5,1.5,7.6ZM22.9,10.8c.3.9,1.2,1.8,2.5,2.5,1.2.7,2.5,1,3.4.9-.3-.9-1.2-1.8-2.5-2.5-1.2-.7-2.5-1-3.4-.9ZM41.5,13.3c-1.2.7-2.5,1-3.4.9.3-.9,1.2-1.8,2.5-2.5,1.2-.7,2.5-1,3.4-.9-.3.9-1.2,1.8-2.5,2.5Z"/>
</svg>